Ceviz Kabugu - Karadeniz TV - 07.09.2012 - Konuk Abdullatif Sener

Complete name              : Ceviz.Kabugu.07.09.2012.Abdullatif.Sener.mkv
Format                     : Matroska
Format version             : Version 2
File size                  : 694 MiB
Duration                   : 3h 25mn
Overall bit rate           : 473 Kbps
Encoded date               : UTC 2012-09-08 15:22:36
Writing application        : mkvmerge v5.6.0 ('Kenya Kane') built on May 27 2012 16:44:04
Writing library            : libebml v1.2.3 + libmatroska v1.3.0

Video
ID                         : 1
Format                     : AVC
Format/Info                : Advanced Video Codec
Format profile             : High@L3.0
Format settings, CABAC     : Yes
Format settings, ReFrames  : 4 frames
Codec ID                   : V_MPEG4/ISO/AVC
Duration                   : 3h 25mn
Bit rate                   : 336 Kbps
Width                      : 720 pixels
Height                     : 544 pixels
Display aspect ratio       : 4:3
Frame rate mode            : Constant
Frame rate                 : 25.000 fps
Color space                : YUV
Chroma subsampling         : 4:2:0
Bit depth                  : 8 bits
Scan type                  : Progressive
Bits/(Pixel*Frame)         : 0.034
Stream size                : 493 MiB (71%)
Writing library            : x264 core 125 r2200 999b753
Default                    : Yes
Forced                     : No

Audio
ID                         : 2
Format                     : MPEG Audio
Format version             : Version 1
Format profile             : Layer 3
Mode                       : Joint stereo
Mode extension             : MS Stereo
Codec ID                   : A_MPEG/L3
Codec ID/Hint              : MP3
Duration                   : 3h 25mn
Bit rate mode              : Constant
Bit rate                   : 128 Kbps
Channel(s)                 : 2 channels
Sampling rate              : 48.0 KHz
Compression mode           : Lossy
Stream size                : 188 MiB (27%)
Writing library            : LAME3.99r
Encoding settings          : -m j -V 4 -q 2 -lowpass 17 -b 128
Default                    : Yes
Forced                     : No
